<svg xmlns="http://www.w3.org/2000/svg" viewBox="0 0 196.81 39.22"><defs><style>.cls-1{fill:#f26c6c;}</style></defs><g id="Layer_2" data-name="Layer 2"><g id="Layer_1-2" data-name="Layer 1"><path d="M10.48,29.3c3.78,0,7.11-.76,9.45-3.9A10.35,10.35,0,0,0,20,13.12a9,9,0,0,0-7.38-3.75c-4-.11-7.92-.09-11.89-.12H0V.07A3.27,3.27,0,0,1,.45,0c4.48,0,9-.08,13.44,0C19.24.2,24,1.86,27.72,5.92a19,19,0,0,1,5.16,14.63C32.39,27.76,28.74,33,22.45,36.41a17.31,17.31,0,0,1-7.9,1.88c-4.73.11-9.46.08-14.19.1a2.8,2.8,0,0,1-.36,0V14.82H10.48Z"/><path d="M99.9,25V36c0,.31,0,.54-.36.7C93,39.81,86.36,40.2,79.81,37c-6-3-9.34-8-10.36-14.64A19.34,19.34,0,0,1,79.08,2.49a19.51,19.51,0,0,1,7-2.12A93.3,93.3,0,0,1,97.56,0h2.29V9.25h-.64c-2.56,0-5.12-.05-7.67,0a21.64,21.64,0,0,0-4.11.45,8.69,8.69,0,0,0-6.79,6.66,10.83,10.83,0,0,0,2,10.17,10.56,10.56,0,0,0,11.71,3.13,10.32,10.32,0,0,0,4.23-3.19c.43-.49.82-1,1.23-1.52Z"/><path d="M129,38.35h-10.5v-.64c0-2.75,0-5.5,0-8.25a11.27,11.27,0,0,0-.18-2,3.47,3.47,0,0,0-3.21-3.19,15.41,15.41,0,0,0-2.63-.25c-2.83,0-5.66,0-8.48,0h-.67V14.8l.66,0c3.82,0,7.65,0,11.48,0a10.9,10.9,0,0,0,2.61-.31,2.3,2.3,0,0,0,1.7-2.45,2.21,2.21,0,0,0-1.68-2.44,8.65,8.65,0,0,0-2.21-.29c-4,0-7.92,0-11.88,0h-.67V.06c.17,0,.35,0,.53,0,4.79,0,9.58,0,14.36.05a25.79,25.79,0,0,1,5.26.61,9.34,9.34,0,0,1,7.23,8.79,9.81,9.81,0,0,1-2.39,7.58,8.89,8.89,0,0,1-4.56,2.53l-.91.24,1,.29a6.24,6.24,0,0,1,4.8,5A13.64,13.64,0,0,1,129,28c0,3.31,0,6.61,0,9.92C129,38.05,129,38.18,129,38.35Z"/><path d="M163.07,29.11v9.24H134.21V14.81h28.84V24H144.78v5.12Z"/><path d="M47.36,24v5.13H65.63v9.24H36.81V14.8H65.63V24Z"/><path class="cls-1" d="M186.26.05h10.51a4.73,4.73,0,0,1,0,.52c0,2.92,0,5.84-.08,8.76a18,18,0,0,1-1.4,7.14,13.43,13.43,0,0,1-10.83,8,17.11,17.11,0,0,1-9.57-1,13.12,13.12,0,0,1-8.26-10.64,42.47,42.47,0,0,1-.36-5.29c-.06-2.29,0-4.57,0-6.86V.06h10.52c0,.24,0,.46,0,.69,0,3.25,0,6.5,0,9.75a8.29,8.29,0,0,0,.34,2,3.68,3.68,0,0,0,3,2.82,8.07,8.07,0,0,0,2.73,0,3.44,3.44,0,0,0,2.76-2.66,13.47,13.47,0,0,0,.48-3.28c.06-2.89,0-5.77,0-8.66Z"/><path d="M36.8,9.21V.06H65.63V9.21Z"/><path d="M163.06.06V9.21H134.22V.06Z"/><path class="cls-1" d="M190.14,29.17v9.18H172.65V29.17Z"/><path d="M99.85,24H88.27V14.81H99.85Z"/></g></g></svg>